<?xml version="1.0" encoding="utf-8"?>
<!-- Generator: Adobe Illustrator 16.0.0, SVG Export Plug-In . SVG Version: 6.00 Build 0)  -->
<!DOCTYPE svg PUBLIC "-//W3C//DTD SVG 1.1//EN" "http://www.w3.org/Graphics/SVG/1.1/DTD/svg11.dtd">
<svg version="1.1" id="Layer_1" xmlns="http://www.w3.org/2000/svg" xmlns:xlink="http://www.w3.org/1999/xlink" x="0px" y="0px"
	 width="120px" height="465px" viewBox="0 0 120 465" enable-background="new 0 0 120 465" xml:space="preserve">
<path id="gear-icon" fill="#686868" d="M25,16.347v-2.693l-1.455-0.518c-0.556-0.197-1.002-0.621-1.228-1.165c0,0,0,0,0-0.001
	c-0.227-0.545-0.21-1.161,0.043-1.694l0.663-1.394l-1.904-1.905L19.725,7.64c-0.533,0.253-1.149,0.269-1.694,0.043H18.03
	c-0.544-0.226-0.968-0.671-1.165-1.227L16.347,5h-2.693l-0.518,1.456c-0.197,0.555-0.621,1.001-1.165,1.227c0,0,0,0-0.001,0
	c-0.545,0.226-1.161,0.21-1.694-0.043L8.881,6.977L6.977,8.881l0.663,1.394c0.253,0.533,0.27,1.149,0.043,1.695l0,0
	c-0.226,0.544-0.671,0.967-1.227,1.165L5,13.653v2.693l1.456,0.518c0.555,0.197,1.001,0.621,1.227,1.165c0,0,0,0,0,0.001
	c0.226,0.545,0.21,1.161-0.043,1.694l-0.663,1.395l1.905,1.904l1.394-0.663c0.533-0.253,1.149-0.269,1.694-0.043c0,0,0,0,0.001,0
	c0.544,0.226,0.967,0.672,1.165,1.228L13.653,25h2.693l0.515-1.446c0.199-0.56,0.626-1.011,1.175-1.239c0.001,0,0.001,0,0.001,0
	c0.54-0.225,1.15-0.209,1.679,0.042l1.403,0.667l1.904-1.904l-0.663-1.396c-0.253-0.532-0.269-1.148-0.043-1.693l0,0
	c0.226-0.545,0.672-0.969,1.229-1.166L25,16.347z M15,18.667c-2.025,0-3.667-1.642-3.667-3.667s1.642-3.667,3.667-3.667
	s3.667,1.642,3.667,3.667S17.025,18.667,15,18.667z"/>
<path id="gear-icon_1_" fill="#4E627D" d="M50,16.347v-2.693l-1.455-0.518c-0.557-0.197-1.002-0.621-1.229-1.165c0,0,0,0,0-0.001
	c-0.227-0.545-0.209-1.161,0.043-1.694l0.664-1.394l-1.904-1.905L44.725,7.64c-0.533,0.253-1.148,0.269-1.693,0.043H43.03
	c-0.543-0.226-0.967-0.671-1.164-1.227L41.348,5h-2.693l-0.518,1.456c-0.197,0.555-0.621,1.001-1.166,1.227l0,0
	c-0.546,0.226-1.162,0.21-1.695-0.043l-1.394-0.663l-1.905,1.905l0.664,1.394c0.252,0.533,0.27,1.149,0.043,1.695l0,0
	c-0.227,0.544-0.672,0.967-1.228,1.165L30,13.653v2.693l1.456,0.518c0.556,0.197,1.001,0.621,1.228,1.165c0,0,0,0,0,0.001
	c0.226,0.545,0.209,1.161-0.043,1.694l-0.664,1.395l1.905,1.904l1.394-0.663c0.533-0.253,1.149-0.269,1.695-0.043l0,0
	c0.545,0.226,0.967,0.672,1.166,1.228L38.652,25h2.693l0.516-1.446c0.199-0.56,0.625-1.011,1.175-1.239c0.001,0,0.001,0,0.001,0
	c0.54-0.225,1.15-0.209,1.679,0.042l1.403,0.667l1.904-1.904l-0.664-1.396c-0.252-0.532-0.269-1.148-0.043-1.693l0,0
	c0.227-0.545,0.672-0.969,1.229-1.166L50,16.347z M40,18.667c-2.025,0-3.667-1.642-3.667-3.667s1.642-3.667,3.667-3.667
	s3.667,1.642,3.667,3.667S42.025,18.667,40,18.667z"/>
<path id="lifebuoy-icon" display="none" fill="#686868" d="M15,30C9.48,30,5,34.477,5,40c0,5.521,4.478,10,10,10
	c5.519,0,10-4.477,10-10C25,34.48,20.523,30,15,30z M18.639,43.639c-2.009,2.01-5.265,2.012-7.277,0
	c-2.009-2.01-2.012-5.266,0-7.277c2.011-2.01,5.266-2.01,7.277,0C20.648,38.371,20.65,41.627,18.639,43.639z M18.896,32.12
	l-1.205,2.114c-1.695-0.793-3.687-0.795-5.383,0l-1.204-2.114C13.503,30.932,16.416,30.891,18.896,32.12z M7.114,36.116l2.115,1.204
	c-0.791,1.7-0.799,3.73,0.052,5.469l-2.113,1.204C5.932,41.573,5.876,38.623,7.114,36.116z M11.166,47.91l1.205-2.116
	c1.66,0.754,3.596,0.755,5.258,0l1.205,2.116C16.458,49.064,13.603,49.094,11.166,47.91z M20.719,42.789
	c0.85-1.737,0.844-3.768,0.052-5.469l2.115-1.204c1.197,2.425,1.224,5.376-0.054,7.876L20.719,42.789z"/>
<path id="lifebuoy-icon_1_" display="none" fill="#4E627D" d="M40,30c-5.52,0-10,4.477-10,10c0,5.521,4.479,10,10,10
	c5.52,0,10-4.477,10-10C50,34.48,45.523,30,40,30z M43.639,43.639c-2.009,2.01-5.265,2.012-7.277,0c-2.008-2.01-2.012-5.266,0-7.277
	c2.012-2.01,5.267-2.01,7.277,0C45.648,38.371,45.65,41.627,43.639,43.639z M43.896,32.12l-1.205,2.114
	c-1.695-0.793-3.688-0.795-5.383,0l-1.205-2.114C38.503,30.932,41.416,30.891,43.896,32.12z M32.113,36.116l2.115,1.204
	c-0.791,1.699-0.799,3.729,0.053,5.469l-2.113,1.204C30.932,41.573,30.876,38.623,32.113,36.116z M36.166,47.91l1.205-2.116
	c1.66,0.754,3.596,0.755,5.258,0l1.205,2.116C41.458,49.064,38.604,49.094,36.166,47.91z M45.719,42.789
	c0.85-1.737,0.844-3.768,0.053-5.469l2.115-1.204c1.196,2.425,1.223,5.376-0.055,7.876L45.719,42.789z"/>
<g>
	<path fill="#424242" d="M85,5C71.193,5,60,16.193,60,30c0,13.808,11.193,25,25,25s25-11.192,25-25C110,16.193,98.807,5,85,5z
		 M99.633,46.604l-0.004,0.004c-0.75,0.455-1.75,0.824-3.074,0.931c-1.406,0.117-3.176-0.062-5.395-0.744
		c-0.576-0.175-1.182-0.387-1.82-0.633c-0.646,0.262-1.262,0.485-1.846,0.674c-2.998,0.963-5.176,0.987-6.748,0.599
		c-2.291-0.562-3.295-2.002-3.656-2.697c-0.123-0.237-0.172-0.39-0.172-0.39c1.613,0.538,3.305-0.219,4.877-1.012
		c1.113-0.649,2.164-1.297,3.08-1.444c2.279-0.363,4.438,0.852,4.438,0.852s2.146-1.247,4.424-0.917
		c0.771,0.109,1.56,0.551,2.394,1.048c1.146,0.561,2.386,1.202,3.604,1.413c0.678,0.115,1.352,0.104,2-0.125
		C101.732,44.161,101.293,45.596,99.633,46.604z M101.9,35.149c-0.719,3.556-0.906,6.274-2.129,5.75l-0.021-2.188
		c-0.006-0.363-0.012-0.752-0.021-1.16c-0.789,2.073-2.588,3.549-4.717,3.609c-2.924,0.084-5.359-2.531-5.441-5.839
		c-0.004-0.084,0-0.167,0-0.251c0-0.032-0.004-0.065-0.004-0.1c-0.01-0.409,0.021-0.811,0.074-1.198
		c-0.236-0.15-0.535-0.282-0.889-0.305c-0.361,0.048-0.658,0.204-0.889,0.374c0.084,0.39,0.137,0.79,0.146,1.202
		c0.002,0.104,0.005,0.204,0,0.306c0,0.014,0.005,0.029,0.005,0.043c0.084,3.309-2.418,6.058-5.595,6.145
		c-3.172,0.087-5.813-2.528-5.899-5.836c-0.002-0.067,0.002-0.138,0.004-0.204c-0.002-0.022-0.002-0.046-0.004-0.067l-4.035,0.03
		c0.014,0.398,0.02,0.792,0.02,1.177c0.004,1.107-0.039,2.147-0.168,3.056c-0.312,2.252-2.643,2.921-2.646,2.924
		c-0.295-0.373-2.252-4.631-3.429-6.61c-2.086-3.516-2.028-7.889-1.659-11.538c0,0,0.537,0.168,1.758,0.818
		c0,0-0.859-5.825,2.082-9.341c0,0,1.646,1.276,1.895,2.541c0.018-0.018,2.062-3.269,6.658-6.76c0,0,0.104,1.058,3.188,2.516
		c0,0,2.662-0.896,2.604-4.644c0,0,6.093,1.231,8.375,5.876c2.938-2.66,1.181-4.062,1.181-4.062c4.47,3.424,4.89,6.065,5.022,7.171
		c0,0.002,0.556-0.517,1.091-1.351c0.494-0.772,0.978-1.865,0.978-1.865c2.885,3.472,1.198,9.666,1.198,9.666
		c1.166-0.669,2.295-1.548,2.295-1.548C103.301,26.931,102.689,31.249,101.9,35.149z"/>
	<path fill="#424242" d="M97.119,22.996c-2.771-1.532-0.664-0.07-8.975-0.008c-8.312,0.061-11.138-0.88-13.979,0.523
		c-1.545,0.762-1.877,3.341-1.871,6.418c0.019,1.187,0.076,2.429,0.127,3.661c1.396-0.021,3.07-0.042,4.315-0.058
		c0.675-2.441,2.804-4.254,5.369-4.323c2.191-0.06,4.138,1.175,5.15,3.037c0.287-0.288,0.758-0.597,1.447-0.594
		c0.648-0.044,1.121,0.197,1.424,0.448c0.854-1.895,2.562-3.212,4.584-3.271c2.02-0.059,3.809,1.172,4.742,3.028
		C99.137,27.75,98.471,23.744,97.119,22.996z"/>
	<ellipse fill="#424242" cx="95.119" cy="35.114" rx="3.459" ry="3.887"/>
	<path fill="#424242" d="M82.492,31.537c-1.494,0-2.776,0.896-3.424,2.195c0,0.003-0.002,0.006-0.004,0.01
		c-0.067,0.123-0.121,0.255-0.176,0.386c-0.021,0.051-0.054,0.098-0.068,0.149c-0.154,0.416-0.246,0.865-0.262,1.333
		c-0.002,0.08-0.002,0.161,0,0.241c0.049,2.264,1.854,4.059,4.022,4.008c2.17-0.052,3.896-1.928,3.84-4.192
		c-0.012-0.565-0.135-1.103-0.344-1.588C85.506,32.59,84.119,31.537,82.492,31.537z"/>
</g>
<g>
	<path fill="#4F617E" d="M85,66c-13.807,0-25,11.193-25,25c0,13.809,11.193,25,25,25s25-11.191,25-25C110,77.193,98.807,66,85,66z
		 M99.633,107.604l-0.004,0.004c-0.75,0.455-1.75,0.824-3.074,0.934c-1.406,0.117-3.176-0.062-5.395-0.744
		c-0.576-0.175-1.182-0.387-1.82-0.633c-0.646,0.262-1.262,0.482-1.846,0.674c-2.998,0.963-5.176,0.987-6.748,0.602
		c-2.291-0.562-3.295-2.002-3.656-2.697c-0.123-0.237-0.172-0.391-0.172-0.391c1.613,0.537,3.305-0.221,4.877-1.014
		c1.113-0.646,2.164-1.297,3.08-1.441c2.279-0.363,4.438,0.852,4.438,0.852s2.146-1.247,4.424-0.917
		c0.771,0.108,1.56,0.551,2.394,1.048c1.146,0.561,2.386,1.202,3.604,1.413c0.678,0.114,1.352,0.104,2-0.125
		C101.732,105.161,101.293,106.596,99.633,107.604z M101.9,96.148c-0.719,3.557-0.906,6.272-2.129,5.75L99.75,99.71
		c-0.006-0.362-0.012-0.752-0.021-1.16c-0.789,2.073-2.588,3.55-4.717,3.609c-2.924,0.084-5.359-2.531-5.441-5.841
		c-0.004-0.084,0-0.166,0-0.25c0-0.031-0.004-0.064-0.004-0.102c-0.01-0.408,0.021-0.811,0.074-1.197
		c-0.236-0.148-0.535-0.28-0.889-0.306c-0.361,0.05-0.658,0.204-0.889,0.374c0.084,0.391,0.137,0.79,0.146,1.202
		c0.002,0.104,0.005,0.204,0,0.308c0,0.014,0.005,0.027,0.005,0.043c0.084,3.31-2.418,6.059-5.595,6.146
		c-3.172,0.087-5.813-2.528-5.899-5.836c-0.002-0.067,0.002-0.14,0.004-0.204c-0.002-0.021-0.002-0.046-0.004-0.066l-4.035,0.029
		c0.014,0.396,0.02,0.792,0.02,1.177c0.004,1.107-0.039,2.147-0.168,3.058c-0.312,2.252-2.643,2.922-2.646,2.925
		c-0.295-0.373-2.252-4.632-3.429-6.61c-2.086-3.516-2.028-7.889-1.659-11.538c0,0,0.537,0.169,1.758,0.818
		c0,0-0.859-5.825,2.082-9.343c0,0,1.646,1.277,1.895,2.541c0.018-0.019,2.062-3.27,6.658-6.76c0,0,0.104,1.06,3.188,2.518
		c0,0,2.662-0.896,2.604-4.645c0,0,6.093,1.229,8.375,5.875c2.938-2.66,1.181-4.062,1.181-4.062c4.47,3.424,4.89,6.062,5.022,7.171
		c0,0.002,0.556-0.52,1.091-1.354c0.494-0.771,0.978-1.862,0.978-1.862c2.885,3.472,1.198,9.666,1.198,9.666
		c1.166-0.669,2.295-1.55,2.295-1.55C103.301,87.932,102.689,92.249,101.9,96.148z"/>
	<path fill="#4F617E" d="M97.119,83.996c-2.771-1.532-0.664-0.07-8.975-0.008c-8.312,0.061-11.138-0.881-13.979,0.521
		c-1.545,0.765-1.877,3.343-1.871,6.421c0.019,1.187,0.076,2.428,0.127,3.658c1.396-0.021,3.07-0.042,4.315-0.058
		c0.675-2.441,2.804-4.257,5.369-4.323c2.191-0.062,4.138,1.175,5.15,3.037c0.287-0.288,0.758-0.6,1.447-0.596
		c0.648-0.045,1.121,0.197,1.424,0.447c0.854-1.895,2.562-3.211,4.584-3.271c2.02-0.06,3.809,1.172,4.742,3.028
		C99.137,88.75,98.471,84.744,97.119,83.996z"/>
	<ellipse fill="#4F617E" cx="95.119" cy="96.114" rx="3.459" ry="3.887"/>
	<path fill="#4F617E" d="M82.492,92.537c-1.494,0-2.776,0.896-3.424,2.195c0,0.002-0.002,0.006-0.004,0.01
		c-0.067,0.123-0.121,0.255-0.176,0.386c-0.021,0.052-0.054,0.099-0.068,0.149c-0.154,0.416-0.246,0.865-0.262,1.332
		c-0.002,0.08-0.002,0.162,0,0.242c0.049,2.264,1.854,4.059,4.022,4.008c2.17-0.053,3.896-1.928,3.84-4.192
		c-0.012-0.565-0.135-1.103-0.344-1.588C85.506,93.59,84.119,92.537,82.492,92.537z"/>
</g>
<g>
	<path fill="#F1F2F3" d="M84,127c-7.732,0-14,6.268-14,14c0,7.733,6.268,14,14,14s14-6.267,14-14C98,133.268,91.732,127,84,127z
		 M92.193,150.298l-0.002,0.002c-0.42,0.254-0.979,0.461-1.721,0.522c-0.787,0.066-1.779-0.034-3.021-0.417
		c-0.322-0.098-0.661-0.216-1.02-0.354c-0.361,0.146-0.707,0.27-1.033,0.377c-1.68,0.539-2.898,0.553-3.779,0.337
		c-1.282-0.314-1.846-1.121-2.047-1.51c-0.068-0.133-0.096-0.219-0.096-0.219c0.901,0.301,1.85-0.124,2.729-0.568
		c0.623-0.362,1.212-0.727,1.726-0.807c1.276-0.203,2.484,0.477,2.484,0.477s1.2-0.698,2.479-0.513
		c0.431,0.061,0.873,0.308,1.34,0.587c0.642,0.314,1.336,0.673,2.018,0.792c0.38,0.063,0.757,0.058,1.12-0.07
		C93.37,148.93,93.124,149.734,92.193,150.298z M93.465,143.883c-0.402,1.992-0.508,3.513-1.193,3.22l-0.012-1.225
		c-0.003-0.203-0.006-0.421-0.012-0.65c-0.441,1.161-1.449,1.988-2.643,2.021c-1.638,0.047-3-1.417-3.047-3.271
		c-0.002-0.047,0-0.093,0-0.14c0-0.017-0.002-0.036-0.002-0.057c-0.006-0.229,0.012-0.454,0.041-0.67
		c-0.132-0.083-0.3-0.156-0.496-0.171c-0.203,0.028-0.369,0.114-0.498,0.209c0.047,0.219,0.076,0.442,0.082,0.673
		c0,0.058,0.002,0.115,0,0.172c0,0.008,0.002,0.016,0.002,0.024c0.047,1.854-1.354,3.393-3.133,3.441
		c-1.777,0.049-3.257-1.416-3.305-3.268c-0.001-0.038,0.001-0.079,0.002-0.114c-0.001-0.012-0.001-0.026-0.002-0.037l-2.26,0.016
		c0.007,0.222,0.011,0.443,0.011,0.659c0.002,0.62-0.021,1.203-0.094,1.713c-0.177,1.261-1.48,1.637-1.482,1.638
		c-0.165-0.208-1.261-2.594-1.92-3.701c-1.168-1.969-1.136-4.418-0.93-6.461c0,0,0.301,0.095,0.983,0.458
		c0,0-0.479-3.262,1.166-5.232c0,0,0.922,0.715,1.062,1.423c0.01-0.011,1.155-1.831,3.729-3.786c0,0,0.059,0.594,1.785,1.41
		c0,0,1.491-0.501,1.458-2.601c0,0,3.411,0.688,4.689,3.29c1.645-1.49,0.661-2.275,0.661-2.275c2.502,1.917,2.736,3.395,2.812,4.016
		c0,0.001,0.311-0.291,0.609-0.758c0.277-0.432,0.547-1.042,0.547-1.042c1.615,1.944,0.672,5.413,0.672,5.413
		c0.652-0.375,1.285-0.868,1.285-0.868C94.248,139.282,93.906,141.699,93.465,143.883z"/>
	<path fill="#F1F2F3" d="M90.787,137.078c-1.553-0.858-0.372-0.04-5.025-0.005c-4.654,0.034-6.236-0.493-7.828,0.292
		c-0.865,0.428-1.053,1.872-1.049,3.596c0.01,0.665,0.043,1.359,0.07,2.048c0.781-0.012,1.721-0.024,2.418-0.032
		c0.377-1.367,1.568-2.384,3.006-2.421c1.229-0.034,2.316,0.658,2.885,1.701c0.161-0.161,0.424-0.336,0.812-0.334
		c0.362-0.025,0.628,0.11,0.797,0.25c0.479-1.061,1.437-1.798,2.567-1.831c1.129-0.034,2.131,0.656,2.654,1.695
		C91.916,139.74,91.543,137.497,90.787,137.078z"/>
	<ellipse fill="#F1F2F3" cx="89.666" cy="143.864" rx="1.938" ry="2.177"/>
	<path fill="#F1F2F3" d="M82.596,141.861c-0.837,0-1.555,0.501-1.918,1.229c0,0.001,0,0.003-0.002,0.006
		c-0.037,0.069-0.066,0.143-0.098,0.216c-0.014,0.029-0.029,0.056-0.039,0.083c-0.086,0.233-0.139,0.485-0.146,0.746
		c0,0.045,0,0.091,0,0.136c0.027,1.268,1.039,2.273,2.254,2.245c1.215-0.03,2.181-1.08,2.15-2.347
		c-0.008-0.316-0.076-0.618-0.193-0.89C84.283,142.45,83.507,141.861,82.596,141.861z"/>
</g>
<g>
	<path fill="#F8FCFF" d="M85,168c-4.419,0-8,3.582-8,8c0,4.419,3.581,8,8,8s8-3.581,8-8C93,171.582,89.419,168,85,168z
		 M89.682,181.313L89.682,181.313c-0.241,0.146-0.56,0.265-0.984,0.3c-0.449,0.038-1.017-0.02-1.727-0.239
		c-0.184-0.056-0.378-0.123-0.582-0.202c-0.207,0.083-0.404,0.154-0.591,0.215c-0.96,0.308-1.656,0.316-2.159,0.193
		c-0.733-0.179-1.055-0.641-1.17-0.863c-0.039-0.076-0.055-0.125-0.055-0.125c0.515,0.172,1.057-0.071,1.56-0.325
		c0.356-0.207,0.692-0.415,0.986-0.461c0.729-0.116,1.42,0.273,1.42,0.273s0.686-0.399,1.416-0.293
		c0.246,0.035,0.499,0.176,0.766,0.335c0.366,0.179,0.764,0.384,1.152,0.453c0.218,0.036,0.433,0.033,0.641-0.04
		C90.354,180.532,90.214,180.991,89.682,181.313z M90.408,177.647c-0.229,1.138-0.29,2.007-0.682,1.84l-0.007-0.7
		c-0.002-0.116-0.003-0.241-0.007-0.372c-0.252,0.664-0.828,1.136-1.51,1.155c-0.936,0.027-1.714-0.81-1.741-1.869
		c-0.001-0.027,0-0.053,0-0.08c0-0.01-0.001-0.021-0.001-0.032c-0.003-0.131,0.007-0.26,0.023-0.383
		c-0.075-0.047-0.171-0.089-0.283-0.098c-0.116,0.016-0.211,0.065-0.285,0.12c0.027,0.125,0.044,0.252,0.047,0.384
		c0,0.033,0.001,0.066,0,0.099c0,0.004,0.001,0.009,0.001,0.014c0.027,1.06-0.773,1.939-1.79,1.966
		c-1.016,0.028-1.86-0.809-1.888-1.868c-0.001-0.021,0-0.045,0.001-0.065c-0.001-0.007-0.001-0.015-0.001-0.021l-1.292,0.009
		c0.004,0.126,0.007,0.253,0.007,0.376c0.001,0.354-0.012,0.688-0.054,0.979c-0.102,0.721-0.847,0.936-0.848,0.936
		c-0.094-0.119-0.72-1.482-1.097-2.115c-0.668-1.125-0.649-2.525-0.531-3.692c0,0,0.172,0.054,0.562,0.262
		c0,0-0.273-1.864,0.667-2.99c0,0,0.526,0.408,0.606,0.813c0.005-0.006,0.66-1.046,2.131-2.163c0,0,0.033,0.339,1.021,0.805
		c0,0,0.852-0.286,0.833-1.486c0,0,1.949,0.393,2.68,1.88c0.939-0.852,0.378-1.3,0.378-1.3c1.43,1.096,1.563,1.94,1.606,2.295
		c0,0,0.178-0.166,0.349-0.433c0.158-0.247,0.312-0.595,0.312-0.595c0.923,1.111,0.384,3.093,0.384,3.093
		c0.373-0.214,0.734-0.496,0.734-0.496C90.856,175.019,90.661,176.399,90.408,177.647z"/>
	<path fill="#F8FCFF" d="M88.878,173.759c-0.887-0.49-0.212-0.023-2.871-0.002c-2.66,0.019-3.563-0.282-4.474,0.167
		c-0.494,0.245-0.602,1.07-0.599,2.055c0.005,0.38,0.024,0.777,0.04,1.17c0.446-0.007,0.983-0.014,1.382-0.018
		c0.215-0.781,0.896-1.363,1.717-1.383c0.702-0.02,1.324,0.375,1.648,0.972c0.093-0.092,0.242-0.192,0.464-0.191
		c0.207-0.014,0.359,0.063,0.456,0.143c0.273-0.606,0.82-1.027,1.467-1.046c0.645-0.02,1.218,0.375,1.517,0.969
		C89.523,175.28,89.311,173.999,88.878,173.759z"/>
	<ellipse fill="#F8FCFF" cx="88.237" cy="177.636" rx="1.107" ry="1.244"/>
	<path fill="#F8FCFF" d="M84.197,176.492c-0.478,0-0.888,0.287-1.096,0.703c0,0,0,0.001-0.001,0.003
		c-0.021,0.04-0.038,0.082-0.056,0.124c-0.008,0.016-0.017,0.032-0.022,0.047c-0.049,0.133-0.079,0.277-0.084,0.426
		c0,0.026,0,0.052,0,0.078c0.016,0.725,0.594,1.299,1.288,1.283c0.694-0.017,1.246-0.617,1.229-1.341
		c-0.004-0.18-0.043-0.353-0.11-0.508C85.162,176.829,84.718,176.492,84.197,176.492z"/>
</g>
<g display="none">
	<path display="inline" d="M21.257,35.266c0.147,0.159,0.176,0.336,0.086,0.527L14.715,49.7C14.609,49.9,14.437,50,14.2,50
		c-0.032,0-0.089-0.007-0.172-0.022c-0.139-0.041-0.243-0.118-0.312-0.23c-0.07-0.112-0.089-0.231-0.056-0.359l2.418-9.712
		l-4.983,1.214c-0.033,0.007-0.082,0.013-0.147,0.013c-0.147,0-0.274-0.044-0.38-0.133c-0.147-0.12-0.201-0.277-0.16-0.468
		l2.467-9.916c0.033-0.112,0.098-0.205,0.197-0.277c0.096-0.073,0.211-0.11,0.343-0.11h4.025c0.156,0,0.286,0.051,0.393,0.15
		c0.106,0.101,0.16,0.218,0.16,0.354c0,0.064-0.021,0.137-0.061,0.217l-2.099,5.563l4.86-1.178c0.065-0.016,0.115-0.023,0.148-0.023
		C20.995,35.085,21.135,35.145,21.257,35.266z"/>
</g>
<g display="none">
	<path display="inline" d="M46.257,35.266c0.147,0.159,0.176,0.336,0.086,0.527L39.715,49.7C39.609,49.9,39.437,50,39.2,50
		c-0.032,0-0.089-0.007-0.172-0.022c-0.139-0.041-0.243-0.118-0.312-0.23c-0.07-0.112-0.089-0.231-0.056-0.359l2.418-9.712
		l-4.983,1.214c-0.033,0.007-0.082,0.013-0.147,0.013c-0.147,0-0.274-0.044-0.38-0.133c-0.147-0.12-0.201-0.277-0.16-0.468
		l2.467-9.916c0.033-0.112,0.098-0.205,0.197-0.277c0.096-0.073,0.211-0.11,0.343-0.11h4.025c0.156,0,0.286,0.051,0.393,0.15
		c0.106,0.101,0.16,0.218,0.16,0.354c0,0.064-0.021,0.137-0.061,0.217l-2.099,5.563l4.86-1.178c0.065-0.016,0.115-0.023,0.148-0.023
		C45.995,35.085,46.135,35.145,46.257,35.266z"/>
</g>
<g>
	<path fill="#686868" d="M20.75,40.001c0.348,0,0.643,0.122,0.886,0.364C21.878,40.608,22,40.903,22,41.25v7.5
		c0,0.347-0.122,0.642-0.365,0.885C21.393,49.878,21.097,50,20.75,50H8.25c-0.348,0-0.643-0.122-0.886-0.365
		C7.122,49.393,7,49.098,7,48.75v-7.5c0-0.348,0.122-0.642,0.364-0.885c0.243-0.243,0.539-0.364,0.886-0.364h0.416v-4.168
		c0-1.604,0.571-2.979,1.713-4.12C11.521,30.571,12.894,30,14.5,30s2.98,0.571,4.122,1.713c1.141,1.141,1.712,2.516,1.712,4.12
		c0,0.226-0.083,0.422-0.247,0.587c-0.165,0.165-0.36,0.247-0.586,0.247h-0.833c-0.226,0-0.421-0.082-0.586-0.247
		s-0.248-0.361-0.248-0.587c0-0.919-0.326-1.705-0.976-2.356C16.206,32.825,15.42,32.5,14.5,32.5s-1.705,0.325-2.356,0.976
		s-0.976,1.438-0.976,2.356V40L20.75,40.001L20.75,40.001z"/>
</g>
<g>
	<path fill="#4E627D" d="M46.75,40.001c0.348,0,0.643,0.122,0.886,0.364C47.878,40.608,48,40.903,48,41.25v7.5
		c0,0.347-0.122,0.642-0.365,0.885C47.393,49.878,47.097,50,46.75,50h-12.5c-0.348,0-0.643-0.122-0.886-0.365
		C33.122,49.393,33,49.098,33,48.75v-7.5c0-0.348,0.122-0.642,0.364-0.885c0.243-0.243,0.539-0.364,0.886-0.364h0.416v-4.168
		c0-1.604,0.571-2.979,1.713-4.12C37.521,30.571,38.894,30,40.5,30s2.98,0.571,4.122,1.713c1.141,1.141,1.712,2.516,1.712,4.12
		c0,0.226-0.083,0.422-0.247,0.587c-0.165,0.165-0.36,0.247-0.586,0.247h-0.833c-0.226,0-0.421-0.082-0.586-0.247
		s-0.248-0.361-0.248-0.587c0-0.919-0.326-1.705-0.976-2.356C42.206,32.825,41.42,32.5,40.5,32.5s-1.705,0.325-2.356,0.976
		s-0.976,1.438-0.976,2.356V40L46.75,40.001L46.75,40.001z"/>
</g>
<path id="gear-icon_3_" opacity="0.9" fill="#2B2E30" enable-background="new    " d="M25,68.348v-2.693l-1.455-0.52
	c-0.556-0.196-1.002-0.62-1.228-1.165c0,0,0,0,0-0.001c-0.227-0.545-0.21-1.161,0.043-1.694l0.663-1.394l-1.904-1.905l-1.394,0.664
	c-0.533,0.252-1.149,0.269-1.694,0.043H18.03c-0.544-0.227-0.968-0.672-1.165-1.228L16.347,57h-2.693l-0.518,1.456
	c-0.197,0.555-0.621,1.001-1.165,1.228c0,0,0,0-0.001,0c-0.545,0.226-1.161,0.209-1.694-0.043l-1.395-0.664l-1.904,1.904
	l0.663,1.395c0.253,0.533,0.27,1.148,0.043,1.694l0,0c-0.226,0.544-0.671,0.968-1.227,1.165L5,65.652v2.693l1.456,0.52
	c0.555,0.196,1.001,0.62,1.227,1.165c0,0,0,0,0,0.001c0.226,0.545,0.21,1.161-0.043,1.694L6.977,73.12l1.905,1.904l1.394-0.664
	c0.533-0.252,1.149-0.269,1.694-0.043c0,0,0,0,0.001,0c0.544,0.227,0.967,0.673,1.165,1.229L13.653,77h2.693l0.515-1.445
	c0.199-0.561,0.626-1.012,1.175-1.24c0.001,0,0.001,0,0.001,0c0.54-0.225,1.15-0.209,1.679,0.043l1.403,0.666l1.904-1.903
	l-0.663-1.396c-0.253-0.533-0.269-1.148-0.043-1.693l0,0c0.226-0.545,0.672-0.969,1.229-1.166L25,68.348z M15,70.667
	c-2.025,0-3.667-1.642-3.667-3.667s1.642-3.667,3.667-3.667s3.667,1.642,3.667,3.667S17.025,70.667,15,70.667z"/>
<path id="gear-icon_2_" fill="#E14D43" d="M50,68.348v-2.693l-1.455-0.52c-0.557-0.196-1.002-0.62-1.229-1.165c0,0,0,0,0-0.001
	c-0.227-0.545-0.209-1.161,0.043-1.694l0.664-1.394l-1.904-1.905l-1.394,0.664c-0.533,0.252-1.148,0.269-1.693,0.043H43.03
	c-0.543-0.227-0.967-0.672-1.164-1.228L41.348,57h-2.693l-0.518,1.456c-0.197,0.555-0.621,1.001-1.166,1.228l0,0
	c-0.546,0.226-1.162,0.209-1.695-0.043l-1.394-0.664l-1.905,1.905l0.664,1.394c0.252,0.533,0.27,1.149,0.043,1.695l0,0
	c-0.227,0.545-0.672,0.967-1.228,1.165L30,65.652v2.693l1.456,0.52c0.556,0.196,1.001,0.62,1.228,1.165c0,0,0,0,0,0.001
	c0.226,0.545,0.209,1.161-0.043,1.694l-0.664,1.395l1.905,1.904l1.394-0.664c0.533-0.252,1.149-0.269,1.695-0.043l0,0
	c0.545,0.227,0.967,0.673,1.166,1.229L38.652,77h2.693l0.516-1.445c0.199-0.561,0.625-1.012,1.175-1.24c0.001,0,0.001,0,0.001,0
	c0.54-0.225,1.15-0.209,1.679,0.043l1.403,0.666l1.904-1.903l-0.664-1.396c-0.252-0.533-0.269-1.148-0.043-1.693l0,0
	c0.227-0.545,0.672-0.969,1.229-1.166L50,68.348z M40,70.667c-2.025,0-3.667-1.642-3.667-3.667s1.642-3.667,3.667-3.667
	s3.667,1.642,3.667,3.667S42.025,70.667,40,70.667z"/>
<g opacity="0.9">
	<path fill="#2B2E30" d="M20.75,92.001c0.348,0,0.643,0.122,0.886,0.364C21.878,92.608,22,92.902,22,93.25v7.5
		c0,0.348-0.122,0.643-0.365,0.885C21.393,101.879,21.097,102,20.75,102H8.25c-0.348,0-0.643-0.121-0.886-0.365
		C7.122,101.393,7,101.098,7,100.75v-7.5c0-0.348,0.122-0.642,0.364-0.885c0.243-0.242,0.539-0.364,0.886-0.364h0.416v-4.168
		c0-1.604,0.571-2.979,1.713-4.12C11.521,82.571,12.894,82,14.5,82s2.98,0.571,4.122,1.713c1.141,1.141,1.712,2.516,1.712,4.12
		c0,0.226-0.083,0.422-0.247,0.587c-0.165,0.165-0.36,0.246-0.586,0.246h-0.833c-0.226,0-0.421-0.081-0.586-0.246
		s-0.248-0.361-0.248-0.587c0-0.919-0.326-1.705-0.976-2.356C16.206,84.825,15.42,84.5,14.5,84.5s-1.705,0.325-2.356,0.977
		s-0.976,1.438-0.976,2.356v4.168H20.75z"/>
</g>
<g>
	<path fill="#E14D43" d="M46.75,92.001c0.348,0,0.643,0.122,0.886,0.364C47.878,92.608,48,92.902,48,93.25v7.5
		c0,0.348-0.122,0.643-0.365,0.885C47.393,101.879,47.097,102,46.75,102h-12.5c-0.348,0-0.643-0.121-0.886-0.365
		C33.122,101.393,33,101.098,33,100.75v-7.5c0-0.348,0.122-0.642,0.364-0.885c0.243-0.242,0.539-0.364,0.886-0.364h0.416v-4.168
		c0-1.604,0.571-2.979,1.713-4.12C37.521,82.571,38.894,82,40.5,82s2.98,0.571,4.122,1.713c1.141,1.141,1.712,2.516,1.712,4.12
		c0,0.226-0.083,0.422-0.247,0.587c-0.165,0.165-0.36,0.246-0.586,0.246h-0.833c-0.226,0-0.421-0.081-0.586-0.246
		s-0.248-0.361-0.248-0.587c0-0.919-0.326-1.705-0.976-2.356C42.206,84.825,41.42,84.5,40.5,84.5s-1.705,0.325-2.356,0.977
		s-0.976,1.438-0.976,2.356v4.168H46.75z"/>
</g>
<path id="gear-icon_5_" opacity="0.9" fill="#46403C" enable-background="new    " d="M25,119.348v-2.693l-1.455-0.52
	c-0.556-0.196-1.002-0.62-1.228-1.165c0,0,0,0,0-0.001c-0.227-0.545-0.21-1.161,0.043-1.694l0.663-1.394l-1.904-1.905l-1.394,0.664
	c-0.533,0.252-1.149,0.269-1.694,0.043H18.03c-0.544-0.227-0.968-0.672-1.165-1.228L16.347,108h-2.693l-0.518,1.456
	c-0.197,0.555-0.621,1.001-1.165,1.228c0,0,0,0-0.001,0c-0.545,0.226-1.161,0.209-1.694-0.043l-1.395-0.664l-1.904,1.904
	l0.663,1.395c0.253,0.533,0.27,1.148,0.043,1.694l0,0c-0.226,0.544-0.671,0.968-1.227,1.165L5,116.652v2.693l1.456,0.52
	c0.555,0.196,1.001,0.62,1.227,1.165c0,0,0,0,0,0.001c0.226,0.545,0.21,1.161-0.043,1.694l-0.663,1.395l1.905,1.904l1.394-0.664
	c0.533-0.252,1.149-0.269,1.694-0.043c0,0,0,0,0.001,0c0.544,0.227,0.967,0.673,1.165,1.229L13.653,128h2.693l0.515-1.445
	c0.199-0.561,0.626-1.012,1.175-1.24c0.001,0,0.001,0,0.001,0c0.54-0.225,1.15-0.209,1.679,0.043l1.403,0.666l1.904-1.903
	l-0.663-1.396c-0.253-0.533-0.269-1.148-0.043-1.693l0,0c0.226-0.545,0.672-0.969,1.229-1.166L25,119.348z M15,121.667
	c-2.025,0-3.667-1.642-3.667-3.667s1.642-3.667,3.667-3.667s3.667,1.642,3.667,3.667S17.025,121.667,15,121.667z"/>
<path id="gear-icon_4_" fill="#C7A589" d="M50,119.348v-2.693l-1.455-0.52c-0.557-0.196-1.002-0.62-1.229-1.165c0,0,0,0,0-0.001
	c-0.227-0.545-0.209-1.161,0.043-1.694l0.664-1.394l-1.904-1.905l-1.394,0.664c-0.533,0.252-1.148,0.269-1.693,0.043H43.03
	c-0.543-0.227-0.967-0.672-1.164-1.228L41.348,108h-2.693l-0.518,1.456c-0.197,0.555-0.621,1.001-1.166,1.228l0,0
	c-0.546,0.226-1.162,0.209-1.695-0.043l-1.394-0.664l-1.905,1.905l0.664,1.394c0.252,0.533,0.27,1.149,0.043,1.695l0,0
	c-0.227,0.545-0.672,0.967-1.228,1.165L30,116.652v2.693l1.456,0.52c0.556,0.196,1.001,0.62,1.228,1.165c0,0,0,0,0,0.001
	c0.226,0.545,0.209,1.161-0.043,1.694l-0.664,1.395l1.905,1.904l1.394-0.664c0.533-0.252,1.149-0.269,1.695-0.043l0,0
	c0.545,0.227,0.967,0.673,1.166,1.229L38.652,128h2.693l0.516-1.445c0.199-0.561,0.625-1.012,1.175-1.24c0.001,0,0.001,0,0.001,0
	c0.54-0.225,1.15-0.209,1.679,0.043l1.403,0.666l1.904-1.903l-0.664-1.396c-0.252-0.533-0.269-1.148-0.043-1.693l0,0
	c0.227-0.545,0.672-0.969,1.229-1.166L50,119.348z M40,121.667c-2.025,0-3.667-1.642-3.667-3.667s1.642-3.667,3.667-3.667
	s3.667,1.642,3.667,3.667S42.025,121.667,40,121.667z"/>
<g opacity="0.9">
	<path fill="#46403C" d="M20.75,143.001c0.348,0,0.643,0.122,0.886,0.364c0.243,0.243,0.365,0.537,0.365,0.885v7.5
		c0,0.348-0.122,0.643-0.365,0.885C21.393,152.879,21.097,153,20.75,153H8.25c-0.348,0-0.643-0.121-0.886-0.365
		C7.122,152.393,7,152.098,7,151.75v-7.5c0-0.348,0.122-0.642,0.364-0.885c0.243-0.242,0.539-0.364,0.886-0.364h0.416v-4.168
		c0-1.604,0.571-2.979,1.713-4.12C11.521,133.571,12.894,133,14.5,133s2.98,0.571,4.122,1.713c1.141,1.141,1.712,2.516,1.712,4.12
		c0,0.226-0.083,0.422-0.247,0.587c-0.165,0.165-0.36,0.246-0.586,0.246h-0.833c-0.226,0-0.421-0.081-0.586-0.246
		s-0.248-0.361-0.248-0.587c0-0.919-0.326-1.705-0.976-2.356c-0.651-0.651-1.437-0.977-2.357-0.977s-1.705,0.325-2.356,0.977
		s-0.976,1.438-0.976,2.356v4.168H20.75L20.75,143.001z"/>
</g>
<g>
	<path fill="#C7A589" d="M46.75,143.001c0.348,0,0.643,0.122,0.886,0.364c0.243,0.243,0.365,0.537,0.365,0.885v7.5
		c0,0.348-0.122,0.643-0.365,0.885C47.393,152.879,47.097,153,46.75,153h-12.5c-0.348,0-0.643-0.121-0.886-0.365
		C33.122,152.393,33,152.098,33,151.75v-7.5c0-0.348,0.122-0.642,0.364-0.885c0.243-0.242,0.539-0.364,0.886-0.364h0.416v-4.168
		c0-1.604,0.571-2.979,1.713-4.12C37.521,133.571,38.894,133,40.5,133s2.98,0.571,4.122,1.713c1.141,1.141,1.712,2.516,1.712,4.12
		c0,0.226-0.083,0.422-0.247,0.587c-0.165,0.165-0.36,0.246-0.586,0.246h-0.833c-0.226,0-0.421-0.081-0.586-0.246
		s-0.248-0.361-0.248-0.587c0-0.919-0.326-1.705-0.976-2.356c-0.651-0.651-1.437-0.977-2.357-0.977s-1.705,0.325-2.356,0.977
		s-0.976,1.438-0.976,2.356v4.168H46.75L46.75,143.001z"/>
</g>
<path id="gear-icon_7_" opacity="0.9" fill="#000222" enable-background="new    " d="M25,170.348v-2.693l-1.455-0.521
	c-0.556-0.196-1.002-0.62-1.228-1.165c0,0,0,0,0-0.001c-0.227-0.545-0.21-1.161,0.043-1.694l0.663-1.394l-1.904-1.905l-1.394,0.664
	c-0.533,0.252-1.149,0.269-1.694,0.043H18.03c-0.544-0.227-0.968-0.672-1.165-1.228L16.347,159h-2.693l-0.518,1.456
	c-0.197,0.555-0.621,1.001-1.165,1.228c0,0,0,0-0.001,0c-0.545,0.226-1.161,0.209-1.694-0.043l-1.395-0.664l-1.904,1.904
	l0.663,1.395c0.253,0.533,0.27,1.148,0.043,1.694l0,0c-0.226,0.544-0.671,0.968-1.227,1.165L5,167.652v2.693l1.456,0.521
	c0.555,0.196,1.001,0.62,1.227,1.165c0,0,0,0,0,0.001c0.226,0.545,0.21,1.161-0.043,1.694l-0.663,1.395l1.905,1.904l1.394-0.664
	c0.533-0.252,1.149-0.269,1.694-0.043c0,0,0,0,0.001,0c0.544,0.227,0.967,0.673,1.165,1.229L13.653,179h2.693l0.515-1.445
	c0.199-0.561,0.626-1.012,1.175-1.24c0.001,0,0.001,0,0.001,0c0.54-0.225,1.15-0.209,1.679,0.043l1.403,0.666l1.904-1.903
	l-0.663-1.396c-0.253-0.533-0.269-1.148-0.043-1.693l0,0c0.226-0.545,0.672-0.969,1.229-1.166L25,170.348z M15,172.667
	c-2.025,0-3.667-1.642-3.667-3.667s1.642-3.667,3.667-3.667s3.667,1.642,3.667,3.667S17.025,172.667,15,172.667z"/>
<path id="gear-icon_6_" fill="#0074A2" d="M50,170.348v-2.693l-1.455-0.521c-0.557-0.196-1.002-0.62-1.229-1.165c0,0,0,0,0-0.001
	c-0.227-0.545-0.209-1.161,0.043-1.694l0.664-1.394l-1.904-1.905l-1.394,0.664c-0.533,0.252-1.148,0.269-1.693,0.043H43.03
	c-0.543-0.227-0.967-0.672-1.164-1.228L41.348,159h-2.693l-0.518,1.456c-0.197,0.555-0.621,1.001-1.166,1.228l0,0
	c-0.546,0.226-1.162,0.209-1.695-0.043l-1.394-0.664l-1.905,1.905l0.664,1.394c0.252,0.533,0.27,1.149,0.043,1.695l0,0
	c-0.227,0.545-0.672,0.967-1.228,1.165L30,167.652v2.693l1.456,0.521c0.556,0.196,1.001,0.62,1.228,1.165c0,0,0,0,0,0.001
	c0.226,0.545,0.209,1.161-0.043,1.694l-0.664,1.395l1.905,1.904l1.394-0.664c0.533-0.252,1.149-0.269,1.695-0.043l0,0
	c0.545,0.227,0.967,0.673,1.166,1.229L38.652,179h2.693l0.516-1.445c0.199-0.561,0.625-1.012,1.175-1.24c0.001,0,0.001,0,0.001,0
	c0.54-0.225,1.15-0.209,1.679,0.043l1.403,0.666l1.904-1.903l-0.664-1.396c-0.252-0.533-0.269-1.148-0.043-1.693l0,0
	c0.227-0.545,0.672-0.969,1.229-1.166L50,170.348z M40,172.667c-2.025,0-3.667-1.642-3.667-3.667s1.642-3.667,3.667-3.667
	s3.667,1.642,3.667,3.667S42.025,172.667,40,172.667z"/>
<g opacity="0.9">
	<path fill="#000222" d="M20.75,194.001c0.348,0,0.643,0.122,0.886,0.364c0.243,0.243,0.365,0.537,0.365,0.885v7.5
		c0,0.348-0.122,0.643-0.365,0.885C21.393,203.879,21.097,204,20.75,204H8.25c-0.348,0-0.643-0.121-0.886-0.365
		C7.122,203.393,7,203.098,7,202.75v-7.5c0-0.348,0.122-0.642,0.364-0.885c0.243-0.242,0.539-0.364,0.886-0.364h0.416v-4.168
		c0-1.604,0.571-2.979,1.713-4.12C11.521,184.571,12.894,184,14.5,184s2.98,0.571,4.122,1.713c1.141,1.141,1.712,2.516,1.712,4.12
		c0,0.226-0.083,0.422-0.247,0.587c-0.165,0.165-0.36,0.246-0.586,0.246h-0.833c-0.226,0-0.421-0.081-0.586-0.246
		s-0.248-0.361-0.248-0.587c0-0.919-0.326-1.705-0.976-2.356c-0.651-0.651-1.437-0.977-2.357-0.977s-1.705,0.325-2.356,0.977
		s-0.976,1.438-0.976,2.356v4.168H20.75L20.75,194.001z"/>
</g>
<g>
	<path fill="#0074A2" d="M46.75,194.001c0.348,0,0.643,0.122,0.886,0.364c0.243,0.243,0.365,0.537,0.365,0.885v7.5
		c0,0.348-0.122,0.643-0.365,0.885C47.393,203.879,47.097,204,46.75,204h-12.5c-0.348,0-0.643-0.121-0.886-0.365
		C33.122,203.393,33,203.098,33,202.75v-7.5c0-0.348,0.122-0.642,0.364-0.885c0.243-0.242,0.539-0.364,0.886-0.364h0.416v-4.168
		c0-1.604,0.571-2.979,1.713-4.12C37.521,184.571,38.894,184,40.5,184s2.98,0.571,4.122,1.713c1.141,1.141,1.712,2.516,1.712,4.12
		c0,0.226-0.083,0.422-0.247,0.587c-0.165,0.165-0.36,0.246-0.586,0.246h-0.833c-0.226,0-0.421-0.081-0.586-0.246
		s-0.248-0.361-0.248-0.587c0-0.919-0.326-1.705-0.976-2.356c-0.651-0.651-1.437-0.977-2.357-0.977s-1.705,0.325-2.356,0.977
		s-0.976,1.438-0.976,2.356v4.168H46.75L46.75,194.001z"/>
</g>
<path id="gear-icon_9_" opacity="0.9" fill="#999999" enable-background="new    " d="M25,221.348v-2.693l-1.455-0.52
	c-0.556-0.196-1.002-0.62-1.228-1.165c0,0,0,0,0-0.001c-0.227-0.545-0.21-1.161,0.043-1.694l0.663-1.394l-1.904-1.905l-1.394,0.664
	c-0.533,0.252-1.149,0.269-1.694,0.043H18.03c-0.544-0.227-0.968-0.672-1.165-1.228L16.347,210h-2.693l-0.518,1.456
	c-0.197,0.555-0.621,1.001-1.165,1.228c0,0,0,0-0.001,0c-0.545,0.226-1.161,0.209-1.694-0.043l-1.395-0.664l-1.904,1.904
	l0.663,1.395c0.253,0.533,0.27,1.148,0.043,1.694l0,0c-0.226,0.544-0.671,0.968-1.227,1.165L5,218.652v2.693l1.456,0.52
	c0.555,0.196,1.001,0.62,1.227,1.165c0,0,0,0,0,0.001c0.226,0.545,0.21,1.161-0.043,1.694l-0.663,1.395l1.905,1.904l1.394-0.664
	c0.533-0.252,1.149-0.269,1.694-0.043c0,0,0,0,0.001,0c0.544,0.227,0.967,0.673,1.165,1.229L13.653,230h2.693l0.515-1.445
	c0.199-0.561,0.626-1.012,1.175-1.24c0.001,0,0.001,0,0.001,0c0.54-0.225,1.15-0.209,1.679,0.043l1.403,0.666l1.904-1.903
	l-0.663-1.396c-0.253-0.533-0.269-1.148-0.043-1.693l0,0c0.226-0.545,0.672-0.969,1.229-1.166L25,221.348z M15,223.667
	c-2.025,0-3.667-1.642-3.667-3.667s1.642-3.667,3.667-3.667s3.667,1.642,3.667,3.667S17.025,223.667,15,223.667z"/>
<path id="gear-icon_8_" fill="#04A4CC" d="M50,221.348v-2.693l-1.455-0.52c-0.557-0.196-1.002-0.62-1.229-1.165c0,0,0,0,0-0.001
	c-0.227-0.545-0.209-1.161,0.043-1.694l0.664-1.394l-1.904-1.905l-1.394,0.664c-0.533,0.252-1.148,0.269-1.693,0.043H43.03
	c-0.543-0.227-0.967-0.672-1.164-1.228L41.348,210h-2.693l-0.518,1.456c-0.197,0.555-0.621,1.001-1.166,1.228l0,0
	c-0.546,0.226-1.162,0.209-1.695-0.043l-1.394-0.664l-1.905,1.905l0.664,1.394c0.252,0.533,0.27,1.149,0.043,1.695l0,0
	c-0.227,0.545-0.672,0.967-1.228,1.165L30,218.652v2.693l1.456,0.52c0.556,0.196,1.001,0.62,1.228,1.165c0,0,0,0,0,0.001
	c0.226,0.545,0.209,1.161-0.043,1.694l-0.664,1.395l1.905,1.904l1.394-0.664c0.533-0.252,1.149-0.269,1.695-0.043l0,0
	c0.545,0.227,0.967,0.673,1.166,1.229L38.652,230h2.693l0.516-1.445c0.199-0.561,0.625-1.012,1.175-1.24c0.001,0,0.001,0,0.001,0
	c0.54-0.225,1.15-0.209,1.679,0.043l1.403,0.666l1.904-1.903l-0.664-1.396c-0.252-0.533-0.269-1.148-0.043-1.693l0,0
	c0.227-0.545,0.672-0.969,1.229-1.166L50,221.348z M40,223.667c-2.025,0-3.667-1.642-3.667-3.667s1.642-3.667,3.667-3.667
	s3.667,1.642,3.667,3.667S42.025,223.667,40,223.667z"/>
<g opacity="0.9">
	<path fill="#999999" d="M20.75,245.001c0.348,0,0.643,0.122,0.886,0.364c0.243,0.242,0.365,0.537,0.365,0.885v7.5
		c0,0.348-0.122,0.643-0.365,0.885C21.393,254.879,21.097,255,20.75,255H8.25c-0.348,0-0.643-0.121-0.886-0.365
		C7.122,254.393,7,254.098,7,253.75v-7.5c0-0.348,0.122-0.643,0.364-0.885c0.243-0.242,0.539-0.364,0.886-0.364h0.416v-4.168
		c0-1.604,0.571-2.979,1.713-4.12C11.521,235.57,12.894,235,14.5,235s2.98,0.57,4.122,1.713c1.141,1.141,1.712,2.516,1.712,4.12
		c0,0.226-0.083,0.422-0.247,0.587c-0.165,0.165-0.36,0.246-0.586,0.246h-0.833c-0.226,0-0.421-0.081-0.586-0.246
		s-0.248-0.361-0.248-0.587c0-0.919-0.326-1.705-0.976-2.356c-0.651-0.649-1.437-0.977-2.357-0.977s-1.705,0.325-2.356,0.977
		c-0.651,0.652-0.976,1.438-0.976,2.356v4.168H20.75L20.75,245.001z"/>
</g>
<g>
	<path fill="#04A4CC" d="M46.75,245.001c0.348,0,0.643,0.122,0.886,0.364c0.243,0.242,0.365,0.537,0.365,0.885v7.5
		c0,0.348-0.122,0.643-0.365,0.885C47.393,254.879,47.097,255,46.75,255h-12.5c-0.348,0-0.643-0.121-0.886-0.365
		C33.122,254.393,33,254.098,33,253.75v-7.5c0-0.348,0.122-0.643,0.364-0.885c0.243-0.242,0.539-0.364,0.886-0.364h0.416v-4.168
		c0-1.604,0.571-2.979,1.713-4.12C37.521,235.57,38.894,235,40.5,235s2.98,0.57,4.122,1.713c1.141,1.141,1.712,2.516,1.712,4.12
		c0,0.226-0.083,0.422-0.247,0.587c-0.165,0.165-0.36,0.246-0.586,0.246h-0.833c-0.226,0-0.421-0.081-0.586-0.246
		s-0.248-0.361-0.248-0.587c0-0.919-0.326-1.705-0.976-2.356c-0.651-0.649-1.437-0.977-2.357-0.977s-1.705,0.325-2.356,0.977
		c-0.651,0.652-0.976,1.438-0.976,2.356v4.168H46.75L46.75,245.001z"/>
</g>
<path id="gear-icon_11_" opacity="0.9" fill="#096484" enable-background="new    " d="M25,272.348v-2.691l-1.455-0.52
	c-0.556-0.197-1.002-0.621-1.228-1.166l0,0c-0.227-0.546-0.21-1.162,0.043-1.695l0.663-1.394l-1.904-1.905l-1.394,0.664
	c-0.533,0.252-1.149,0.271-1.694,0.043H18.03c-0.544-0.227-0.968-0.672-1.165-1.228L16.347,261h-2.693l-0.518,1.456
	c-0.197,0.555-0.621,1.001-1.165,1.228c0,0,0,0-0.001,0c-0.545,0.228-1.161,0.209-1.694-0.043l-1.395-0.664l-1.904,1.904
	l0.663,1.395c0.253,0.533,0.27,1.148,0.043,1.694l0,0c-0.226,0.544-0.671,0.968-1.227,1.165L5,269.652v2.691l1.456,0.52
	c0.555,0.197,1.001,0.621,1.227,1.166l0,0c0.226,0.546,0.21,1.162-0.043,1.695l-0.663,1.395l1.905,1.904l1.394-0.664
	c0.533-0.252,1.149-0.271,1.694-0.043c0,0,0,0,0.001,0c0.544,0.227,0.967,0.672,1.165,1.229L13.653,281h2.693l0.515-1.445
	c0.199-0.561,0.626-1.012,1.175-1.24c0.001,0,0.001,0,0.001,0c0.54-0.225,1.15-0.209,1.679,0.043l1.403,0.666l1.904-1.901
	l-0.663-1.396c-0.253-0.533-0.269-1.147-0.043-1.692l0,0c0.226-0.546,0.672-0.97,1.229-1.166L25,272.348z M15,274.667
	c-2.025,0-3.667-1.642-3.667-3.667s1.642-3.667,3.667-3.667s3.667,1.642,3.667,3.667S17.025,274.667,15,274.667z"/>
<path id="gear-icon_10_" fill="#52ACCC" d="M50,272.348v-2.691l-1.455-0.52c-0.557-0.197-1.002-0.621-1.229-1.166l0,0
	c-0.227-0.546-0.209-1.162,0.043-1.695l0.664-1.394l-1.904-1.905l-1.394,0.664c-0.533,0.252-1.148,0.271-1.693,0.043H43.03
	c-0.543-0.227-0.967-0.672-1.164-1.228L41.348,261h-2.693l-0.518,1.456c-0.197,0.555-0.621,1.001-1.166,1.228l0,0
	c-0.546,0.228-1.162,0.209-1.695-0.043l-1.394-0.664l-1.905,1.905l0.664,1.394c0.252,0.533,0.27,1.149,0.043,1.695l0,0
	c-0.227,0.545-0.672,0.967-1.228,1.166L30,269.652v2.691l1.456,0.52c0.556,0.197,1.001,0.621,1.228,1.166l0,0
	c0.226,0.546,0.209,1.162-0.043,1.695l-0.664,1.395l1.905,1.904l1.394-0.664c0.533-0.252,1.149-0.271,1.695-0.043l0,0
	c0.545,0.227,0.967,0.672,1.166,1.229L38.652,281h2.693l0.516-1.445c0.199-0.561,0.625-1.012,1.175-1.24c0.001,0,0.001,0,0.001,0
	c0.54-0.225,1.15-0.209,1.679,0.043l1.403,0.666l1.904-1.901l-0.664-1.396c-0.252-0.533-0.269-1.147-0.043-1.692l0,0
	c0.227-0.546,0.672-0.97,1.229-1.166L50,272.348z M40,274.667c-2.025,0-3.667-1.642-3.667-3.667s1.642-3.667,3.667-3.667
	s3.667,1.642,3.667,3.667S42.025,274.667,40,274.667z"/>
<g opacity="0.9">
	<path fill="#096484" d="M20.75,296.001c0.348,0,0.643,0.122,0.886,0.364c0.243,0.242,0.365,0.537,0.365,0.885v7.5
		c0,0.348-0.122,0.643-0.365,0.885C21.393,305.879,21.097,306,20.75,306H8.25c-0.348,0-0.643-0.121-0.886-0.365
		C7.122,305.393,7,305.098,7,304.75v-7.5c0-0.348,0.122-0.643,0.364-0.885c0.243-0.242,0.539-0.364,0.886-0.364h0.416v-4.168
		c0-1.604,0.571-2.979,1.713-4.12C11.521,286.57,12.894,286,14.5,286s2.98,0.57,4.122,1.713c1.141,1.141,1.712,2.516,1.712,4.12
		c0,0.226-0.083,0.422-0.247,0.587c-0.165,0.165-0.36,0.246-0.586,0.246h-0.833c-0.226,0-0.421-0.081-0.586-0.246
		s-0.248-0.361-0.248-0.587c0-0.919-0.326-1.705-0.976-2.356c-0.651-0.649-1.437-0.977-2.357-0.977s-1.705,0.325-2.356,0.977
		c-0.651,0.652-0.976,1.438-0.976,2.356v4.168H20.75z"/>
</g>
<g>
	<path fill="#52ACCC" d="M46.75,296.001c0.348,0,0.643,0.122,0.886,0.364c0.243,0.242,0.365,0.537,0.365,0.885v7.5
		c0,0.348-0.122,0.643-0.365,0.885C47.393,305.879,47.097,306,46.75,306h-12.5c-0.348,0-0.643-0.121-0.886-0.365
		C33.122,305.393,33,305.098,33,304.75v-7.5c0-0.348,0.122-0.643,0.364-0.885c0.243-0.242,0.539-0.364,0.886-0.364h0.416v-4.168
		c0-1.604,0.571-2.979,1.713-4.12C37.521,286.57,38.894,286,40.5,286s2.98,0.57,4.122,1.713c1.141,1.141,1.712,2.516,1.712,4.12
		c0,0.226-0.083,0.422-0.247,0.587c-0.165,0.165-0.36,0.246-0.586,0.246h-0.833c-0.226,0-0.421-0.081-0.586-0.246
		s-0.248-0.361-0.248-0.587c0-0.919-0.326-1.705-0.976-2.356c-0.651-0.649-1.437-0.977-2.357-0.977s-1.705,0.325-2.356,0.977
		c-0.651,0.652-0.976,1.438-0.976,2.356v4.168H46.75z"/>
</g>
<path id="gear-icon_13_" opacity="0.9" fill="#413256" enable-background="new    " d="M25,323.348v-2.691l-1.455-0.52
	c-0.556-0.197-1.002-0.621-1.228-1.166l0,0c-0.227-0.546-0.21-1.162,0.043-1.695l0.663-1.394l-1.904-1.905l-1.394,0.664
	c-0.533,0.252-1.149,0.271-1.694,0.043H18.03c-0.544-0.227-0.968-0.672-1.165-1.228L16.347,312h-2.693l-0.518,1.456
	c-0.197,0.555-0.621,1.001-1.165,1.228c0,0,0,0-0.001,0c-0.545,0.228-1.161,0.209-1.694-0.043l-1.395-0.664l-1.904,1.904
	l0.663,1.395c0.253,0.533,0.27,1.148,0.043,1.694l0,0c-0.226,0.544-0.671,0.968-1.227,1.165L5,320.652v2.691l1.456,0.52
	c0.555,0.197,1.001,0.621,1.227,1.166l0,0c0.226,0.546,0.21,1.162-0.043,1.695l-0.663,1.395l1.905,1.904l1.394-0.664
	c0.533-0.252,1.149-0.271,1.694-0.043c0,0,0,0,0.001,0c0.544,0.227,0.967,0.672,1.165,1.229L13.653,332h2.693l0.515-1.445
	c0.199-0.561,0.626-1.012,1.175-1.24c0.001,0,0.001,0,0.001,0c0.54-0.225,1.15-0.209,1.679,0.043l1.403,0.666l1.904-1.901
	l-0.663-1.396c-0.253-0.533-0.269-1.147-0.043-1.692l0,0c0.226-0.546,0.672-0.97,1.229-1.166L25,323.348z M15,325.667
	c-2.025,0-3.667-1.642-3.667-3.667s1.642-3.667,3.667-3.667s3.667,1.642,3.667,3.667S17.025,325.667,15,325.667z"/>
<path id="gear-icon_12_" fill="#A3B745" d="M50,323.348v-2.691l-1.455-0.52c-0.557-0.197-1.002-0.621-1.229-1.166l0,0
	c-0.227-0.546-0.209-1.162,0.043-1.695l0.664-1.394l-1.904-1.905l-1.394,0.664c-0.533,0.252-1.148,0.271-1.693,0.043H43.03
	c-0.543-0.227-0.967-0.672-1.164-1.228L41.348,312h-2.693l-0.518,1.456c-0.197,0.555-0.621,1.001-1.166,1.228l0,0
	c-0.546,0.228-1.162,0.209-1.695-0.043l-1.394-0.664l-1.905,1.905l0.664,1.394c0.252,0.533,0.27,1.149,0.043,1.695l0,0
	c-0.227,0.545-0.672,0.967-1.228,1.166L30,320.652v2.691l1.456,0.52c0.556,0.197,1.001,0.621,1.228,1.166l0,0
	c0.226,0.546,0.209,1.162-0.043,1.695l-0.664,1.395l1.905,1.904l1.394-0.664c0.533-0.252,1.149-0.271,1.695-0.043l0,0
	c0.545,0.227,0.967,0.672,1.166,1.229L38.652,332h2.693l0.516-1.445c0.199-0.561,0.625-1.012,1.175-1.24c0.001,0,0.001,0,0.001,0
	c0.54-0.225,1.15-0.209,1.679,0.043l1.403,0.666l1.904-1.901l-0.664-1.396c-0.252-0.533-0.269-1.147-0.043-1.692l0,0
	c0.227-0.546,0.672-0.97,1.229-1.166L50,323.348z M40,325.667c-2.025,0-3.667-1.642-3.667-3.667s1.642-3.667,3.667-3.667
	s3.667,1.642,3.667,3.667S42.025,325.667,40,325.667z"/>
<g opacity="0.9">
	<path fill="#413256" d="M20.75,347.001c0.348,0,0.643,0.122,0.886,0.364c0.243,0.242,0.365,0.537,0.365,0.885v7.5
		c0,0.348-0.122,0.643-0.365,0.885C21.393,356.879,21.097,357,20.75,357H8.25c-0.348,0-0.643-0.121-0.886-0.365
		C7.122,356.393,7,356.098,7,355.75v-7.5c0-0.348,0.122-0.643,0.364-0.885c0.243-0.242,0.539-0.364,0.886-0.364h0.416v-4.168
		c0-1.604,0.571-2.979,1.713-4.12C11.521,337.57,12.894,337,14.5,337s2.98,0.57,4.122,1.713c1.141,1.141,1.712,2.516,1.712,4.12
		c0,0.226-0.083,0.422-0.247,0.587c-0.165,0.165-0.36,0.246-0.586,0.246h-0.833c-0.226,0-0.421-0.081-0.586-0.246
		s-0.248-0.361-0.248-0.587c0-0.919-0.326-1.705-0.976-2.356c-0.651-0.649-1.437-0.977-2.357-0.977s-1.705,0.325-2.356,0.977
		c-0.651,0.652-0.976,1.438-0.976,2.356v4.168H20.75z"/>
</g>
<g>
	<path fill="#A3B745" d="M46.75,347.001c0.348,0,0.643,0.122,0.886,0.364c0.243,0.242,0.365,0.537,0.365,0.885v7.5
		c0,0.348-0.122,0.643-0.365,0.885C47.393,356.879,47.097,357,46.75,357h-12.5c-0.348,0-0.643-0.121-0.886-0.365
		C33.122,356.393,33,356.098,33,355.75v-7.5c0-0.348,0.122-0.643,0.364-0.885c0.243-0.242,0.539-0.364,0.886-0.364h0.416v-4.168
		c0-1.604,0.571-2.979,1.713-4.12C37.521,337.57,38.894,337,40.5,337s2.98,0.57,4.122,1.713c1.141,1.141,1.712,2.516,1.712,4.12
		c0,0.226-0.083,0.422-0.247,0.587c-0.165,0.165-0.36,0.246-0.586,0.246h-0.833c-0.226,0-0.421-0.081-0.586-0.246
		s-0.248-0.361-0.248-0.587c0-0.919-0.326-1.705-0.976-2.356c-0.651-0.649-1.437-0.977-2.357-0.977s-1.705,0.325-2.356,0.977
		c-0.651,0.652-0.976,1.438-0.976,2.356v4.168H46.75z"/>
</g>
<path id="gear-icon_15_" opacity="0.9" fill="#627C83" enable-background="new    " d="M25,374.348v-2.691l-1.455-0.52
	c-0.556-0.197-1.002-0.621-1.228-1.166l0,0c-0.227-0.546-0.21-1.162,0.043-1.695l0.663-1.394l-1.904-1.905l-1.394,0.664
	c-0.533,0.252-1.149,0.271-1.694,0.043H18.03c-0.544-0.227-0.968-0.672-1.165-1.228L16.347,363h-2.693l-0.518,1.456
	c-0.197,0.555-0.621,1.001-1.165,1.228c0,0,0,0-0.001,0c-0.545,0.228-1.161,0.209-1.694-0.043l-1.395-0.664l-1.904,1.904
	l0.663,1.395c0.253,0.533,0.27,1.148,0.043,1.694l0,0c-0.226,0.544-0.671,0.968-1.227,1.165L5,371.652v2.691l1.456,0.52
	c0.555,0.197,1.001,0.621,1.227,1.166l0,0c0.226,0.546,0.21,1.162-0.043,1.695l-0.663,1.395l1.905,1.904l1.394-0.664
	c0.533-0.252,1.149-0.271,1.694-0.043c0,0,0,0,0.001,0c0.544,0.227,0.967,0.672,1.165,1.229L13.653,383h2.693l0.515-1.445
	c0.199-0.561,0.626-1.012,1.175-1.24c0.001,0,0.001,0,0.001,0c0.54-0.225,1.15-0.209,1.679,0.043l1.403,0.666l1.904-1.901
	l-0.663-1.396c-0.253-0.533-0.269-1.147-0.043-1.692l0,0c0.226-0.546,0.672-0.97,1.229-1.166L25,374.348z M15,376.667
	c-2.025,0-3.667-1.642-3.667-3.667s1.642-3.667,3.667-3.667s3.667,1.642,3.667,3.667S17.025,376.667,15,376.667z"/>
<path id="gear-icon_14_" fill="#9EBAA0" d="M50,374.348v-2.691l-1.455-0.52c-0.557-0.197-1.002-0.621-1.229-1.166l0,0
	c-0.227-0.546-0.209-1.162,0.043-1.695l0.664-1.394l-1.904-1.905l-1.394,0.664c-0.533,0.252-1.148,0.271-1.693,0.043H43.03
	c-0.543-0.227-0.967-0.672-1.164-1.228L41.348,363h-2.693l-0.518,1.456c-0.197,0.555-0.621,1.001-1.166,1.228l0,0
	c-0.546,0.228-1.162,0.209-1.695-0.043l-1.394-0.664l-1.905,1.905l0.664,1.394c0.252,0.533,0.27,1.149,0.043,1.695l0,0
	c-0.227,0.545-0.672,0.967-1.228,1.166L30,371.652v2.691l1.456,0.52c0.556,0.197,1.001,0.621,1.228,1.166l0,0
	c0.226,0.546,0.209,1.162-0.043,1.695l-0.664,1.395l1.905,1.904l1.394-0.664c0.533-0.252,1.149-0.271,1.695-0.043l0,0
	c0.545,0.227,0.967,0.672,1.166,1.229L38.652,383h2.693l0.516-1.445c0.199-0.561,0.625-1.012,1.175-1.24c0.001,0,0.001,0,0.001,0
	c0.54-0.225,1.15-0.209,1.679,0.043l1.403,0.666l1.904-1.901l-0.664-1.396c-0.252-0.533-0.269-1.147-0.043-1.692l0,0
	c0.227-0.546,0.672-0.97,1.229-1.166L50,374.348z M40,376.667c-2.025,0-3.667-1.642-3.667-3.667s1.642-3.667,3.667-3.667
	s3.667,1.642,3.667,3.667S42.025,376.667,40,376.667z"/>
<g opacity="0.9">
	<path fill="#627C83" d="M20.75,398.001c0.348,0,0.643,0.122,0.886,0.364c0.243,0.242,0.365,0.537,0.365,0.885v7.5
		c0,0.348-0.122,0.643-0.365,0.885C21.393,407.879,21.097,408,20.75,408H8.25c-0.348,0-0.643-0.121-0.886-0.365
		C7.122,407.393,7,407.098,7,406.75v-7.5c0-0.348,0.122-0.643,0.364-0.885c0.243-0.242,0.539-0.364,0.886-0.364h0.416v-4.168
		c0-1.604,0.571-2.979,1.713-4.12C11.521,388.57,12.894,388,14.5,388s2.98,0.57,4.122,1.713c1.141,1.141,1.712,2.516,1.712,4.12
		c0,0.226-0.083,0.422-0.247,0.587c-0.165,0.165-0.36,0.246-0.586,0.246h-0.833c-0.226,0-0.421-0.081-0.586-0.246
		s-0.248-0.361-0.248-0.587c0-0.919-0.326-1.705-0.976-2.356c-0.651-0.649-1.437-0.977-2.357-0.977s-1.705,0.325-2.356,0.977
		c-0.651,0.652-0.976,1.438-0.976,2.356v4.168H20.75z"/>
</g>
<g>
	<path fill="#9EBAA0" d="M46.75,398.001c0.348,0,0.643,0.122,0.886,0.364c0.243,0.242,0.365,0.537,0.365,0.885v7.5
		c0,0.348-0.122,0.643-0.365,0.885C47.393,407.879,47.097,408,46.75,408h-12.5c-0.348,0-0.643-0.121-0.886-0.365
		C33.122,407.393,33,407.098,33,406.75v-7.5c0-0.348,0.122-0.643,0.364-0.885c0.243-0.242,0.539-0.364,0.886-0.364h0.416v-4.168
		c0-1.604,0.571-2.979,1.713-4.12C37.521,388.57,38.894,388,40.5,388s2.98,0.57,4.122,1.713c1.141,1.141,1.712,2.516,1.712,4.12
		c0,0.226-0.083,0.422-0.247,0.587c-0.165,0.165-0.36,0.246-0.586,0.246h-0.833c-0.226,0-0.421-0.081-0.586-0.246
		s-0.248-0.361-0.248-0.587c0-0.919-0.326-1.705-0.976-2.356c-0.651-0.649-1.437-0.977-2.357-0.977s-1.705,0.325-2.356,0.977
		c-0.651,0.652-0.976,1.438-0.976,2.356v4.168H46.75z"/>
</g>
<path id="gear-icon_17_" opacity="0.9" fill="#B43C38" enable-background="new    " d="M25,425.348v-2.691l-1.455-0.521
	c-0.556-0.194-1.002-0.62-1.228-1.165l0,0c-0.227-0.546-0.21-1.162,0.043-1.695l0.663-1.394l-1.904-1.905l-1.394,0.664
	c-0.533,0.252-1.149,0.271-1.694,0.043H18.03c-0.544-0.227-0.968-0.672-1.165-1.228L16.347,414h-2.693l-0.518,1.456
	c-0.197,0.555-0.621,1.001-1.165,1.228c0,0,0,0-0.001,0c-0.545,0.228-1.161,0.209-1.694-0.043l-1.395-0.664l-1.904,1.904
	l0.663,1.395c0.253,0.533,0.27,1.148,0.043,1.694l0,0c-0.226,0.544-0.671,0.968-1.227,1.165L5,422.652v2.691l1.456,0.521
	c0.555,0.194,1.001,0.62,1.227,1.165c0,0,0,0,0,0.001c0.226,0.545,0.21,1.161-0.043,1.692l-0.663,1.396l1.905,1.904l1.394-0.664
	c0.533-0.252,1.149-0.271,1.694-0.043c0,0,0,0,0.001,0c0.544,0.227,0.967,0.673,1.165,1.229L13.653,434h2.693l0.515-1.445
	c0.199-0.561,0.626-1.012,1.175-1.238c0.001,0,0.001,0,0.001,0c0.54-0.227,1.15-0.209,1.679,0.043l1.403,0.666l1.904-1.903
	l-0.663-1.396c-0.253-0.531-0.269-1.146-0.043-1.691l0,0c0.226-0.545,0.672-0.97,1.229-1.166L25,425.348z M15,427.667
	c-2.025,0-3.667-1.642-3.667-3.667s1.642-3.667,3.667-3.667s3.667,1.642,3.667,3.667S17.025,427.667,15,427.667z"/>
<path id="gear-icon_16_" fill="#DD823B" d="M50,425.348v-2.691l-1.455-0.521c-0.557-0.194-1.002-0.62-1.229-1.165l0,0
	c-0.227-0.546-0.209-1.162,0.043-1.695l0.664-1.394l-1.904-1.905l-1.394,0.664c-0.533,0.252-1.148,0.271-1.693,0.043H43.03
	c-0.543-0.227-0.967-0.672-1.164-1.228L41.348,414h-2.693l-0.518,1.456c-0.197,0.555-0.621,1.001-1.166,1.228l0,0
	c-0.546,0.228-1.162,0.209-1.695-0.043l-1.394-0.664l-1.905,1.905l0.664,1.394c0.252,0.533,0.27,1.149,0.043,1.695l0,0
	c-0.227,0.545-0.672,0.969-1.228,1.165L30,422.652v2.691l1.456,0.521c0.556,0.194,1.001,0.62,1.228,1.165c0,0,0,0,0,0.001
	c0.226,0.545,0.209,1.161-0.043,1.692l-0.664,1.396l1.905,1.904l1.394-0.664c0.533-0.252,1.149-0.271,1.695-0.043l0,0
	c0.545,0.227,0.967,0.673,1.166,1.229L38.652,434h2.693l0.516-1.445c0.199-0.561,0.625-1.012,1.175-1.238c0.001,0,0.001,0,0.001,0
	c0.54-0.227,1.15-0.209,1.679,0.043l1.403,0.666l1.904-1.903l-0.664-1.396c-0.252-0.531-0.269-1.146-0.043-1.691l0,0
	c0.227-0.545,0.672-0.97,1.229-1.166L50,425.348z M40,427.667c-2.025,0-3.667-1.642-3.667-3.667s1.642-3.667,3.667-3.667
	s3.667,1.642,3.667,3.667S42.025,427.667,40,427.667z"/>
<g opacity="0.9">
	<path fill="#B43C38" d="M20.75,449.001c0.348,0,0.643,0.122,0.886,0.364c0.243,0.243,0.365,0.537,0.365,0.885v7.5
		c0,0.348-0.122,0.643-0.365,0.885C21.393,458.879,21.097,459,20.75,459H8.25c-0.348,0-0.643-0.121-0.886-0.365
		C7.122,458.393,7,458.098,7,457.75v-7.5c0-0.348,0.122-0.642,0.364-0.885c0.243-0.242,0.539-0.364,0.886-0.364h0.416v-4.168
		c0-1.604,0.571-2.979,1.713-4.12C11.521,439.571,12.894,439,14.5,439s2.98,0.571,4.122,1.713c1.141,1.141,1.712,2.516,1.712,4.12
		c0,0.226-0.083,0.422-0.247,0.587c-0.165,0.165-0.36,0.246-0.586,0.246h-0.833c-0.226,0-0.421-0.081-0.586-0.246
		s-0.248-0.361-0.248-0.587c0-0.919-0.326-1.705-0.976-2.356c-0.651-0.649-1.437-0.977-2.357-0.977s-1.705,0.325-2.356,0.977
		c-0.651,0.652-0.976,1.438-0.976,2.356v4.168H20.75z"/>
</g>
<g>
	<path fill="#DD823B" d="M46.75,449.001c0.348,0,0.643,0.122,0.886,0.364c0.243,0.243,0.365,0.537,0.365,0.885v7.5
		c0,0.348-0.122,0.643-0.365,0.885C47.393,458.879,47.097,459,46.75,459h-12.5c-0.348,0-0.643-0.121-0.886-0.365
		C33.122,458.393,33,458.098,33,457.75v-7.5c0-0.348,0.122-0.642,0.364-0.885c0.243-0.242,0.539-0.364,0.886-0.364h0.416v-4.168
		c0-1.604,0.571-2.979,1.713-4.12C37.521,439.571,38.894,439,40.5,439s2.98,0.571,4.122,1.713c1.141,1.141,1.712,2.516,1.712,4.12
		c0,0.226-0.083,0.422-0.247,0.587c-0.165,0.165-0.36,0.246-0.586,0.246h-0.833c-0.226,0-0.421-0.081-0.586-0.246
		s-0.248-0.361-0.248-0.587c0-0.919-0.326-1.705-0.976-2.356c-0.651-0.649-1.437-0.977-2.357-0.977s-1.705,0.325-2.356,0.977
		c-0.651,0.652-0.976,1.438-0.976,2.356v4.168H46.75z"/>
</g>
</svg>
